<?xml version="1.0" encoding="UTF-8" standalone="no"?>
<svg
   width="2460"
   height="3500"
   version="1.1"
   id="svg13"
   sodipodi:docname="out.svg"
   inkscape:version="1.3.2 (091e20e, 2023-11-25)"
   xmlns:inkscape="http://www.inkscape.org/namespaces/inkscape"
   xmlns:sodipodi="http://sodipodi.sourceforge.net/DTD/sodipodi-0.dtd"
   xmlns="http://www.w3.org/2000/svg"
   xmlns:svg="http://www.w3.org/2000/svg">
  <defs
     id="defs13" />
  <rect
     x="0"
     y="0"
     width="100%"
     height="100%"
     fill="none"
     id="rect1"
     style="fill:none;fill-opacity:0;stroke:none" />
  <path
     stroke="#999999"
     stroke-width="20"
     d="M 0 200 m 30.0 0 v 50.0"
     stroke-linecap="round"
     fill="none"
     id="path1"
     style="stroke:#000000" />
  <path
     stroke="#000000"
     stroke-width="20"
     d="M 120 200 m 0 50.0 h 5.999999999999998 q 24.0 0.0 24.0 40.0 v 9.999999999999998 v 100 v 100 v 100 v 9.999999999999998 q 0.0 40.0 24.0 40.0 h 5.999999999999998 h 60 h 5.999999999999998 q 24.0 0.0 24.0 40.0 v 9.999999999999998 v 100 v 100 v 100 v 100 v 100 v 100 v 100 v 100 v 100 v 100 v 100 v 100 v 100 v 100 v 100 v 100 v 9.999999999999998 q 0.0 40.0 24.0 40.0 h 5.999999999999998 h 60"
     stroke-linecap="round"
     fill="none"
     id="path2" />
  <path
     stroke="#000000"
     stroke-width="20"
     d="M 240 200 m 0 50.0 h 5.999999999999998 q 24.0 0.0 24.0 40.0 v 9.999999999999998 v 9.999999999999998 q 0.0 40.0 24.0 40.0 h 5.999999999999998 h 60 h 5.999999999999998 q 24.0 0.0 24.0 40.0 v 9.999999999999998 v 100 v 100 v 100 v 100 v 100 v 100 v 100 v 100 v 100 v 100 v 100 v 100 v 100 v 100 v 100 v 100 v 100 v 100 v 100 v 100 v 100 v 100 v 100 v 100 v 100 v 9.999999999999998 q 0.0 40.0 24.0 40.0 h 5.999999999999998 h 60"
     stroke-linecap="round"
     fill="none"
     id="path3" />
  <path
     stroke="#000000"
     stroke-width="20"
     d="M 420 200 m 0 50.0 h 5.999999999999998 q 24.0 0.0 24.0 40.0 v 9.999999999999998 v 100 v 100 v 100 v 100 v 100 v 100 v 100 v 100 v 100 v 100 v 100 v 100 v 100 v 100 v 100 v 100 v 100 v 100 v 100 v 100 v 100 v 100 v 100 v 100 v 100 v 9.999999999999998 q 0.0 40.0 24.0 40.0 h 5.999999999999998 h 60"
     stroke-linecap="round"
     fill="none"
     id="path4" />
  <path
     stroke="#000000"
     stroke-width="20"
     d="M 480 200 m 0 50.0 h 5.999999999999998 q 24.0 0.0 24.0 40.0 v 9.999999999999998 v 100 v 9.999999999999998 q 0.0 40.0 24.0 40.0 h 5.999999999999998 h 60 h 5.999999999999998 q 24.0 0.0 24.0 40.0 v 9.999999999999998 v 100 v 100 v 100 v 100 v 100 v 100 v 100 v 100 v 100 v 100 v 100 v 100 v 100 v 100 v 100 v 100 v 100 v 100 v 100 v 100 v 100 v 100 v 9.999999999999998 q 0.0 40.0 24.0 40.0 h 5.999999999999998 h 60"
     stroke-linecap="round"
     fill="none"
     id="path5" />
  <path
     stroke="#000000"
     stroke-width="20"
     d="M 660 200 m 0 50.0 h 5.999999999999998 q 24.0 0.0 24.0 40.0 v 9.999999999999998 v 100 v 9.999999999999998 q 0.0 40.0 24.0 40.0 h 5.999999999999998 h 60 h 5.999999999999998 q 24.0 0.0 24.0 40.0 v 9.999999999999998 v 100 v 100 v 100 v 100 v 100 v 100 v 100 v 9.999999999999998 q 0.0 40.0 24.0 40.0 h 5.999999999999998 h 60"
     stroke-linecap="round"
     fill="none"
     id="path6" />
  <path
     stroke="#000000"
     stroke-width="20"
     d="M 840 200 m 0 50.0 h 5.999999999999998 q 24.0 0.0 24.0 40.0 v 9.999999999999998 v 100 v 100 v 9.999999999999998 q 0.0 40.0 24.0 40.0 h 5.999999999999998 h 60 h 5.999999999999998 q 24.0 0.0 24.0 40.0 v 9.999999999999998 v 100 v 100 v 100 v 100 v 100 v 100 v 100 v 100 v 100 v 100 v 100 v 100 v 100 v 100 v 9.999999999999998 q 0.0 40.0 24.0 40.0 h 5.999999999999998 h 60"
     stroke-linecap="round"
     fill="none"
     id="path7" />
  <path
     stroke="#000000"
     stroke-width="20"
     d="M 1080 200 m 0 50.0 h 5.999999999999998 q 24.0 0.0 24.0 40.0 v 9.999999999999998 v 100 v 100 v 100 v 100 v 100 v 100 v 100 v 100 v 100 v 100 v 100 v 100 v 100 v 100 v 100 v 100 v 100 v 100 v 100 v 100 v 100 v 100 v 100 v 100 v 100 v 9.999999999999998 q 0.0 40.0 24.0 40.0 h 5.999999999999998 h 60"
     stroke-linecap="round"
     fill="none"
     id="path8" />
  <path
     stroke="#000000"
     stroke-width="20"
     d="M 1140 200 m 0 50.0 h 5.999999999999998 q 24.0 0.0 24.0 40.0 v 9.999999999999998 v 100 v 100 v 100 v 100 v 100 v 100 v 100 v 100 v 100 v 100 v 100 v 100 v 100 v 100 v 100 v 100 v 100 v 100 v 100 v 100 v 100 v 100 v 100 v 100 v 9.999999999999998 q 0.0 40.0 24.0 40.0 h 5.999999999999998 h 60"
     stroke-linecap="round"
     fill="none"
     id="path9" />
  <path
     stroke="#000000"
     stroke-width="20"
     d="M 1200 200 m 0 50.0 h 5.999999999999998 q 24.0 0.0 24.0 40.0 v 9.999999999999998 v 100 v 9.999999999999998 q 0.0 40.0 24.0 40.0 h 5.999999999999998 h 60 h 5.999999999999998 q 24.0 0.0 24.0 40.0 v 9.999999999999998 v 100 v 9.999999999999998 q 0.0 40.0 24.0 40.0 h 5.999999999999998 h 60 h 5.999999999999998 q 24.0 0.0 24.0 40.0 v 9.999999999999998 v 100 v 100 v 100 v 100 v 100 v 100 v 100 v 100 v 100 v 100 v 100 v 100 v 100 v 100 v 100 v 100 v 100 v 100 v 100 v 100 v 100 v 100 v 100 v 9.999999999999998 q 0.0 40.0 24.0 40.0 h 5.999999999999998 h 60"
     stroke-linecap="round"
     fill="none"
     id="path10" />
  <path
     stroke="#000000"
     stroke-width="20"
     d="M 1440 200 m 0 50.0 h 5.999999999999998 q 24.0 0.0 24.0 40.0 v 9.999999999999998 v 100 v 9.999999999999998 q 0.0 40.0 24.0 40.0 h 5.999999999999998 h 60 h 5.999999999999998 q 24.0 0.0 24.0 40.0 v 9.999999999999998 v 100 v 100 v 100 v 100 v 100 v 100 v 100 v 100 v 100 v 100 v 100 v 100 v 100 v 100 v 100 v 100 v 100 v 100 v 100 v 100 v 100 v 100 v 100 v 100 v 100 v 100 v 100 v 9.999999999999998 q 0.0 40.0 24.0 40.0 h 5.999999999999998 h 60"
     stroke-linecap="round"
     fill="none"
     id="path11" />
  <path
     stroke="#000000"
     stroke-width="20"
     d="M 1620 200 m 0 50.0 h 5.999999999999998 q 24.0 0.0 24.0 40.0 v 9.999999999999998 v 100 v 9.999999999999998 q 0.0 40.0 24.0 40.0 h 5.999999999999998 h 60 h 5.999999999999998 q 24.0 0.0 24.0 40.0 v 9.999999999999998 v 100 v 100 v 100 v 100 v 100 v 100 v 100 v 100 v 100 v 100 v 100 v 100 v 9.999999999999998 q 0.0 40.0 24.0 40.0 h 5.999999999999998 h 60 h 5.999999999999998 q 24.0 0.0 24.0 40.0 v 9.999999999999998 v 100 v 100 v 100 v 100 v 9.999999999999998 q 0.0 40.0 24.0 40.0 h 5.999999999999998 h 60"
     stroke-linecap="round"
     fill="none"
     id="path12" />
  <path
     stroke="#999999"
     stroke-width="20"
     d="M 2070.0 3200 m 30.0 50.0 v 50.0"
     stroke-linecap="round"
     fill="none"
     id="path13"
     style="fill:#000000;stroke:#000000" />
</svg>
