<?xml version="1.0" encoding="utf-8" ?>
<svg baseProfile="full" height="8" version="1.1" width="8" xmlns="http://www.w3.org/2000/svg" xmlns:ev="http://www.w3.org/2001/xml-events" xmlns:xlink="http://www.w3.org/1999/xlink"><defs /><path d="M 5.0, 1.0 A 1.4142135623730951 1.4142135623730951 90 0,0 3.0 0.9999999999999998" fill="none" stroke="currentColor" stroke-width="0.05" /><path d="M 3.0, 3.0 A 1.4142135623730951 1.4142135623730951 90 0,0 5.0 3.0" fill="none" stroke="currentColor" stroke-width="0.05" /><path d="M 4.0, 1.0 A 0.7071067811865476 0.7071067811865476 90 0,0 3.0 0.9999999999999999" fill="none" stroke="currentColor" stroke-width="0.05" /><path d="M 4.0, 0.9999999999999999 A 0.7071067811865476 0.7071067811865476 90 0,0 4.0 2.0" fill="none" stroke="currentColor" stroke-width="0.05" /><path d="M 4.0, 2.0 A 0.7071067811865476 0.7071067811865476 90 0,0 5.0 2.0" fill="none" stroke="currentColor" stroke-width="0.05" /><path d="M 5.0, 2.0 A 0.7071067811865476 0.7071067811865476 -270 0,0 5.0 1.0" fill="none" stroke="currentColor" stroke-width="0.05" /><path d="M 4.0, 3.0 A 0.7071067811865476 0.7071067811865476 90 0,0 5.0 3.0" fill="none" stroke="currentColor" stroke-width="0.05" /><path d="M 3.0, 2.0 A 0.7071067811865476 0.7071067811865476 90 0,0 3.0 3.0" fill="none" stroke="currentColor" stroke-width="0.05" /><path d="M 4.0, 2.0 A 0.7071067811865476 0.7071067811865476 90 0,0 3.0 2.0" fill="none" stroke="currentColor" stroke-width="0.05" /><path d="M 4.0, 3.0 A 0.7071067811865476 0.7071067811865476 -270 0,0 4.0 2.0" fill="none" stroke="currentColor" stroke-width="0.05" /><path d="M 5.0, 3.0 A 1.4142135623730951 1.4142135623730951 90 0,0 5.0 5.0" fill="none" stroke="currentColor" stroke-width="0.05" /><path d="M 7.0, 5.0 A 1.4142135623730951 1.4142135623730951 -270 0,0 7.0 3.0" fill="none" stroke="currentColor" stroke-width="0.05" /><path d="M 5.0, 3.0 A 0.7071067811865476 0.7071067811865476 90 0,0 5.0 4.0" fill="none" stroke="currentColor" stroke-width="0.05" /><path d="M 5.0, 4.0 A 0.7071067811865476 0.7071067811865476 90 0,0 5.0 5.0" fill="none" stroke="currentColor" stroke-width="0.05" /><path d="M 7.0, 3.0 A 0.7071067811865476 0.7071067811865476 90 0,0 6.0 3.0" fill="none" stroke="currentColor" stroke-width="0.05" /><path d="M 7.0, 4.0 A 0.7071067811865476 0.7071067811865476 -270 0,0 7.0 3.0" fill="none" stroke="currentColor" stroke-width="0.05" /><path d="M 6.0, 4.0 A 0.7071067811865476 0.7071067811865476 90 0,0 7.0 4.0" fill="none" stroke="currentColor" stroke-width="0.05" /><path d="M 7.0, 5.0 A 0.7071067811865476 0.7071067811865476 -270 0,0 7.0 4.0" fill="none" stroke="currentColor" stroke-width="0.05" /><path d="M 6.0, 5.0 A 0.7071067811865476 0.7071067811865476 90 0,0 7.0 5.0" fill="none" stroke="currentColor" stroke-width="0.05" /><path d="M 5.0, 5.0 A 1.4142135623730951 1.4142135623730951 90 0,0 3.0 5.0" fill="none" stroke="currentColor" stroke-width="0.05" /><path d="M 3.0, 7.0 A 1.4142135623730951 1.4142135623730951 90 0,0 5.0 7.0" fill="none" stroke="currentColor" stroke-width="0.05" /><path d="M 3.0, 5.0 A 0.7071067811865476 0.7071067811865476 90 0,0 3.0 6.0" fill="none" stroke="currentColor" stroke-width="0.05" /><path d="M 4.0, 6.0 A 0.7071067811865476 0.7071067811865476 90 0,0 3.0 6.0" fill="none" stroke="currentColor" stroke-width="0.05" /><path d="M 5.0, 5.0 A 0.7071067811865476 0.7071067811865476 90 0,0 4.0 5.0" fill="none" stroke="currentColor" stroke-width="0.05" /><path d="M 5.0, 6.0 A 0.7071067811865476 0.7071067811865476 -270 0,0 5.0 5.0" fill="none" stroke="currentColor" stroke-width="0.05" /><path d="M 4.0, 6.0 A 0.7071067811865476 0.7071067811865476 90 0,0 5.0 6.0" fill="none" stroke="currentColor" stroke-width="0.05" /><path d="M 4.0, 5.0 A 0.7071067811865476 0.7071067811865476 90 0,0 4.0 6.0" fill="none" stroke="currentColor" stroke-width="0.05" /><path d="M 5.0, 7.0 A 0.7071067811865476 0.7071067811865476 -270 0,0 5.0 6.0" fill="none" stroke="currentColor" stroke-width="0.05" /><path d="M 4.0, 7.0 A 0.7071067811865476 0.7071067811865476 90 0,0 5.0 7.0" fill="none" stroke="currentColor" stroke-width="0.05" /><path d="M 3.0, 3.0 A 1.4142135623730951 1.4142135623730951 90 0,0 1.0 3.0" fill="none" stroke="currentColor" stroke-width="0.05" /><path d="M 1.0, 3.0 A 0.7071067811865476 0.7071067811865476 90 0,0 0.9999999999999999 4.0" fill="none" stroke="currentColor" stroke-width="0.05" /><path d="M 2.0, 3.0 A 0.7071067811865476 0.7071067811865476 90 0,0 1.0 3.0" fill="none" stroke="currentColor" stroke-width="0.05" /><path d="M 2.0, 4.0 A 0.7071067811865476 0.7071067811865476 -270 0,0 2.0 3.0" fill="none" stroke="currentColor" stroke-width="0.05" /><path d="M 2.0, 3.0 A 0.7071067811865476 0.7071067811865476 90 0,0 2.0 4.0" fill="none" stroke="currentColor" stroke-width="0.05" /><path d="M 3.0, 3.0 A 0.7071067811865476 0.7071067811865476 90 0,0 2.0 3.0" fill="none" stroke="currentColor" stroke-width="0.05" /><path d="M 3.0, 4.0 A 0.7071067811865476 0.7071067811865476 -270 0,0 3.0 3.0" fill="none" stroke="currentColor" stroke-width="0.05" /><path d="M 2.0, 5.0 A 0.7071067811865476 0.7071067811865476 -270 0,0 2.0 4.0" fill="none" stroke="currentColor" stroke-width="0.05" /><path d="M 0.9999999999999999, 5.0 A 0.7071067811865476 0.7071067811865476 90 0,0 2.0 5.0" fill="none" stroke="currentColor" stroke-width="0.05" /><path d="M 2.0, 4.0 A 0.7071067811865476 0.7071067811865476 90 0,0 2.0 5.0" fill="none" stroke="currentColor" stroke-width="0.05" /><path d="M 2.0, 5.0 A 0.7071067811865476 0.7071067811865476 90 0,0 3.0 5.0" fill="none" stroke="currentColor" stroke-width="0.05" /></svg>